<svg xmlns="http://www.w3.org/2000/svg" viewBox="0.06000000238418579 15 56.28999710083008 35.400001525878906" data-asc="1" width="56.28999710083008" height="35.400001525878906"><defs/><g fill="#0fafd7"><g transform="translate(0, 0)"><path d="M23.90 50Q23.40 50 23.25 49.50L21.60 44.15Q21.50 43.95 21.35 43.95L8.15 43.95Q8 43.95 7.90 44.15L6.25 49.50Q6.10 50 5.60 50L0.60 50Q0.30 50 0.15 49.83Q0 49.65 0.10 49.30L10.95 15.50Q11.10 15 11.60 15L17.85 15Q18.35 15 18.50 15.50L29.40 49.30Q29.45 49.40 29.45 49.55Q29.45 50 28.90 50L23.90 50M9.45 39.10Q9.40 39.40 9.65 39.40L19.80 39.40Q20.10 39.40 20.00 39.10L14.85 22.35Q14.80 22.15 14.70 22.15Q14.60 22.15 14.55 22.35L9.45 39.10ZM44.20 50.40Q40.55 50.40 37.80 49.02Q35.05 47.65 33.55 45.15Q32.05 42.65 32.05 39.35L32.05 36Q32.05 35.75 32.23 35.58Q32.40 35.40 32.65 35.40L37.25 35.40Q37.50 35.40 37.67 35.58Q37.85 35.75 37.85 36L37.85 39.35Q37.85 42.05 39.58 43.73Q41.30 45.40 44.20 45.40Q47 45.40 48.80 43.73Q50.60 42.05 50.60 39.35L50.60 15.60Q50.60 15.35 50.78 15.17Q50.95 15 51.20 15L55.75 15Q56 15 56.17 15.17Q56.35 15.35 56.35 15.60L56.35 39.35Q56.35 42.65 54.83 45.15Q53.30 47.65 50.53 49.02Q47.75 50.40 44.20 50.40Z"/></g></g></svg>